<svg id="Capa_1" data-name="Capa 1" xmlns="http://www.w3.org/2000/svg" viewBox="0 0 198.92 56.94"><defs><style>.cls-1{fill:#25a2bd;}.cls-2{fill:#fff;}</style></defs><title>logo</title><rect class="cls-1" width="198.92" height="56.94"/><path class="cls-2" d="M21,22.61V21.28h9.11v9.21a7.3,7.3,0,0,1-3.17,2.75,11.57,11.57,0,0,1-5,1,11.31,11.31,0,0,1-5.75-1.39,9.37,9.37,0,0,1-3.73-3.95,13.17,13.17,0,0,1-1.32-6.1,13.05,13.05,0,0,1,1.29-6,9.57,9.57,0,0,1,3.6-4,9.84,9.84,0,0,1,5.3-1.42,11.32,11.32,0,0,1,5.31,1.15,6.91,6.91,0,0,1,3.13,3.1l-.89.83a6.74,6.74,0,0,0-3.14-2.9,11,11,0,0,0-4.41-.85A8.59,8.59,0,0,0,16.68,14a8.5,8.5,0,0,0-3.11,3.51,11.83,11.83,0,0,0-1.11,5.26,11.9,11.9,0,0,0,1.15,5.39,8.25,8.25,0,0,0,3.28,3.51,9.88,9.88,0,0,0,5,1.24c3.22,0,5.49-.94,6.83-2.81V22.61Zm0,2.88V24.16h6.08v4.69a5.13,5.13,0,0,1-2,1.86,6.38,6.38,0,0,1-3.13.7,6.36,6.36,0,0,1-3.44-1A7,7,0,0,1,16,27.48,10.63,10.63,0,0,1,15,22.77a10.55,10.55,0,0,1,.9-4.59,6.6,6.6,0,0,1,2.45-2.84,6.48,6.48,0,0,1,3.5-1,7.14,7.14,0,0,1,3.19.77,6.27,6.27,0,0,1,2.61,2.51l-1,1a5.72,5.72,0,0,0-1.93-2.14,5.24,5.24,0,0,0-2.85-.77,5,5,0,0,0-2.86.83,5.49,5.49,0,0,0-2,2.41,9.26,9.26,0,0,0-.71,3.83,9.47,9.47,0,0,0,.75,3.95,5.87,5.87,0,0,0,2,2.49,4.85,4.85,0,0,0,2.82.87,5.61,5.61,0,0,0,2.38-.46,3.35,3.35,0,0,0,1.42-1.15v-3Z"/><path class="cls-2" d="M44.74,23.72a9.91,9.91,0,0,0,2.6-1.33,3.91,3.91,0,0,0,1.3-1.7A6.24,6.24,0,0,0,49,18.42a4.88,4.88,0,0,0-.74-2.7,5,5,0,0,0-2-1.76,6.69,6.69,0,0,0-2.94-.62H35.5V33.66H34.17V12h9.16a7.9,7.9,0,0,1,3.66.81A6.08,6.08,0,0,1,49.46,15a6.22,6.22,0,0,1,.89,3.38,7,7,0,0,1-1,3.95,5.32,5.32,0,0,1-2.73,2.07l5.14,9.22H50.21ZM42,25.33H39.14v8.33H37.81V24h5l4.44,9.66H45.8ZM37.83,14.89h4.56a4.41,4.41,0,0,1,3,1,3.52,3.52,0,0,1,1.14,2.77,3.9,3.9,0,0,1-1.13,3,4.21,4.21,0,0,1-3,1.05H37.83Zm4.58,6.47a2.89,2.89,0,0,0,2-.71,2.56,2.56,0,0,0,.77-2,2.22,2.22,0,0,0-.79-1.81,3.19,3.19,0,0,0-2-.64H39.17v5.14Z"/><path class="cls-2" d="M54.65,12h15v1.34H56v19H70.2v1.34H54.65Zm3.72,2.89H69.64v1.33H59.71V20.5h8.52v1.33H58.37Zm0,8.41h9.86v1.33H59.71v4.81H70.2v1.33H58.37Z"/><path class="cls-2" d="M82.52,22.61V21.28h9.11v9.21a7.3,7.3,0,0,1-3.17,2.75,11.57,11.57,0,0,1-5,1,11.31,11.31,0,0,1-5.75-1.39A9.37,9.37,0,0,1,74,28.87a13.17,13.17,0,0,1-1.32-6.1,13.05,13.05,0,0,1,1.29-6,9.61,9.61,0,0,1,3.59-4,9.9,9.9,0,0,1,5.31-1.42,11.32,11.32,0,0,1,5.31,1.15,7,7,0,0,1,3.13,3.1l-.89.83a6.74,6.74,0,0,0-3.14-2.9,11,11,0,0,0-4.41-.85A8.59,8.59,0,0,0,78.22,14a8.5,8.5,0,0,0-3.11,3.51A11.83,11.83,0,0,0,74,22.77a11.9,11.9,0,0,0,1.15,5.39,8.25,8.25,0,0,0,3.28,3.51,9.86,9.86,0,0,0,5,1.24c3.22,0,5.49-.94,6.83-2.81V22.61Zm0,2.88V24.16H88.6v4.69a5.13,5.13,0,0,1-2,1.86,6.82,6.82,0,0,1-6.57-.3,7,7,0,0,1-2.53-2.93,10.63,10.63,0,0,1-.94-4.71,10.55,10.55,0,0,1,.9-4.59,6.6,6.6,0,0,1,2.45-2.84,6.48,6.48,0,0,1,3.5-1,7.14,7.14,0,0,1,3.19.77,6.27,6.27,0,0,1,2.61,2.51l-1,1a5.72,5.72,0,0,0-1.93-2.14,5.24,5.24,0,0,0-2.85-.77,5,5,0,0,0-2.86.83,5.49,5.49,0,0,0-2,2.41,9.26,9.26,0,0,0-.71,3.83,9.47,9.47,0,0,0,.75,3.95,5.87,5.87,0,0,0,2,2.49,4.85,4.85,0,0,0,2.82.87,5.61,5.61,0,0,0,2.38-.46,3.35,3.35,0,0,0,1.42-1.15v-3Z"/><path class="cls-2" d="M104.59,34.21a9.7,9.7,0,0,1-5.24-1.39,9.24,9.24,0,0,1-3.5-3.95,13.69,13.69,0,0,1-1.25-6.1,13.38,13.38,0,0,1,1.25-6,9.45,9.45,0,0,1,3.5-4,9.7,9.7,0,0,1,5.24-1.4,9.51,9.51,0,0,1,5.23,1.42,9.26,9.26,0,0,1,3.46,4,13.73,13.73,0,0,1,1.22,6,14.12,14.12,0,0,1-1.22,6.1,9.1,9.1,0,0,1-3.46,3.95A9.66,9.66,0,0,1,104.59,34.21Zm0-1.3a7.85,7.85,0,0,0,7.52-4.78,12.5,12.5,0,0,0,1.06-5.36,12.14,12.14,0,0,0-1.06-5.24,8.27,8.27,0,0,0-3-3.51,8.07,8.07,0,0,0-4.55-1.27A8,8,0,0,0,97,17.5a12.21,12.21,0,0,0-1.07,5.27A12.5,12.5,0,0,0,97,28.13a8,8,0,0,0,7.59,4.78Zm0-1.7a5.27,5.27,0,0,1-3.07-1,6.6,6.6,0,0,1-2.23-2.84,11.31,11.31,0,0,1-.83-4.63,10.51,10.51,0,0,1,.89-4.62,6.65,6.65,0,0,1,2.29-2.77,5.25,5.25,0,0,1,3-.93,5.32,5.32,0,0,1,3,.93,6.26,6.26,0,0,1,2.19,2.77,11.34,11.34,0,0,1,.82,4.62,11,11,0,0,1-.86,4.63,6.91,6.91,0,0,1-2.23,2.84A5,5,0,0,1,104.59,31.21Zm0-1.33a3.78,3.78,0,0,0,2.37-.83,5.6,5.6,0,0,0,1.71-2.43,10.27,10.27,0,0,0,.64-3.85A8.65,8.65,0,0,0,108,17.58a4.06,4.06,0,0,0-3.39-1.8,4,4,0,0,0-2.37.8,5.58,5.58,0,0,0-1.76,2.36,9.66,9.66,0,0,0-.67,3.83,10.71,10.71,0,0,0,.62,3.85,5.54,5.54,0,0,0,1.72,2.43A4,4,0,0,0,104.59,29.88Z"/><path class="cls-2" d="M128.91,23.72a9.82,9.82,0,0,0,2.59-1.33,3.94,3.94,0,0,0,1.31-1.7,6.24,6.24,0,0,0,.37-2.27,4.87,4.87,0,0,0-.73-2.7,5,5,0,0,0-2-1.76,6.69,6.69,0,0,0-2.94-.62h-7.83V33.66h-1.33V12h9.16a8,8,0,0,1,3.67.81A6.2,6.2,0,0,1,133.63,15a6.31,6.31,0,0,1,.88,3.38,7,7,0,0,1-.95,3.95,5.35,5.35,0,0,1-2.74,2.07L136,33.66h-1.58Zm-2.78,1.61H123.3v8.33H122V24h5l4.44,9.66H130ZM122,14.89h4.55a4.39,4.39,0,0,1,3,1,3.52,3.52,0,0,1,1.14,2.77,3.89,3.89,0,0,1-1.12,3,4.25,4.25,0,0,1-3,1.05H122Zm4.58,6.47a2.89,2.89,0,0,0,2-.71,2.59,2.59,0,0,0,.76-2,2.19,2.19,0,0,0-.79-1.81,3.19,3.19,0,0,0-2-.64h-3.22v5.14Z"/><path class="cls-2" d="M138.93,12h1.33V33.66h-1.33Zm3.88,0h1.34V33.66h-1.34Z"/><path class="cls-2" d="M166.71,12V26.16a7.81,7.81,0,0,1-1.13,4.22,7.93,7.93,0,0,1-3.11,2.82,9.87,9.87,0,0,1-4.53,1,10,10,0,0,1-4.59-1,7.59,7.59,0,0,1-3.1-2.83,7.92,7.92,0,0,1-1.11-4.21V12h1.34V26.16a6.58,6.58,0,0,0,.94,3.53,6.4,6.4,0,0,0,2.64,2.37,8.59,8.59,0,0,0,3.88.85,8.42,8.42,0,0,0,3.82-.84,6.36,6.36,0,0,0,3.62-5.91V12Zm-3.63,0V25.72a6.49,6.49,0,0,1-.68,3.16,4.37,4.37,0,0,1-1.83,1.81,5.88,5.88,0,0,1-2.63.58A5,5,0,0,1,154.33,30,5.63,5.63,0,0,1,153,25.72V12h1.33V25.72a4.38,4.38,0,0,0,1,3.2,3.54,3.54,0,0,0,2.66,1,3.81,3.81,0,0,0,2.72-1,4.2,4.2,0,0,0,1.09-3.2V12Z"/><path class="cls-2" d="M178,20.89a5.65,5.65,0,0,1-2.52-1.47,2.83,2.83,0,0,1-.73-1.86,3.32,3.32,0,0,1,.41-1.61,3,3,0,0,1,1.36-1.23,5.88,5.88,0,0,1,2.56-.47,5.32,5.32,0,0,1,2.95.84,5.69,5.69,0,0,1,2.08,2.47l-1.11.8a4.17,4.17,0,0,0-1.56-2.05,4.08,4.08,0,0,0-2.36-.72,3.71,3.71,0,0,0-2.3.56,1.76,1.76,0,0,0-.69,1.41c0,.85.77,1.53,2.33,2.05l3.44,1.14a9.12,9.12,0,0,1,3.93,2.36,5.71,5.71,0,0,1,1.45,4.08,6.42,6.42,0,0,1-2.15,5.19A9.16,9.16,0,0,1,179,34.21a9.75,9.75,0,0,1-5.58-1.5,8,8,0,0,1-3.13-4.16l1-.67a8.09,8.09,0,0,0,3.16,3.89A8.83,8.83,0,0,0,179,32.91a7.94,7.94,0,0,0,5.12-1.47,5.14,5.14,0,0,0,1.82-4.25,4.43,4.43,0,0,0-1.23-3.28A8.21,8.21,0,0,0,181.45,22Zm-1.8,3a9.21,9.21,0,0,1-3.74-2.27,5.47,5.47,0,0,1-1.26-3.81,5.91,5.91,0,0,1,.92-3.2,6.51,6.51,0,0,1,2.63-2.33,9,9,0,0,1,4.14-.88q5.91,0,7.77,4.3l-1,.75a6,6,0,0,0-2.79-3,9.57,9.57,0,0,0-3.93-.75,7.9,7.9,0,0,0-3.4.68,5.27,5.27,0,0,0-2.19,1.84,4.51,4.51,0,0,0-.77,2.56,4.13,4.13,0,0,0,1.06,3,8,8,0,0,0,3.05,1.8l3.14,1.11a6.15,6.15,0,0,1,2.86,1.74,3.59,3.59,0,0,1,.75,2.23,3.36,3.36,0,0,1-1,2.5,4.78,4.78,0,0,1-3.41,1,5.81,5.81,0,0,1-3.36-1.1,7.91,7.91,0,0,1-2.67-3.4l1.14-.77a6.51,6.51,0,0,0,2.08,2.9,4.6,4.6,0,0,0,2.81,1,3.88,3.88,0,0,0,2.35-.58,1.91,1.91,0,0,0,.75-1.59,2.18,2.18,0,0,0-.61-1.54A5.32,5.32,0,0,0,179.34,25Z"/><path class="cls-2" d="M46.64,46.09a.78.78,0,0,1,.17-.56.65.65,0,0,1,.93,0,.82.82,0,0,1,.17.55.81.81,0,0,1-.17.54.56.56,0,0,1-.47.2.58.58,0,0,1-.46-.19A.79.79,0,0,1,46.64,46.09Z"/><path class="cls-2" d="M52.29,43.44a2.28,2.28,0,0,0-1.79.72,2.89,2.89,0,0,0-.65,2,3,3,0,0,0,.61,2,2.19,2.19,0,0,0,1.76.71,4.67,4.67,0,0,0,1.39-.19V49a4.53,4.53,0,0,1-1.49.21,2.53,2.53,0,0,1-2-.82,3.36,3.36,0,0,1-.73-2.29,3.64,3.64,0,0,1,.35-1.62,2.49,2.49,0,0,1,1-1.08,2.91,2.91,0,0,1,1.52-.38,3.66,3.66,0,0,1,1.58.33l-.17.37A3.17,3.17,0,0,0,52.29,43.44Z"/><path class="cls-2" d="M59.39,43.14V47a2.18,2.18,0,0,1-.6,1.63,2.32,2.32,0,0,1-1.68.58A2,2,0,0,1,54.89,47V43.14h.42V47a1.67,1.67,0,0,0,1.85,1.84,1.78,1.78,0,0,0,1.33-.48A1.75,1.75,0,0,0,59,47.08V43.14Z"/><path class="cls-2" d="M61,43.14h1.65a2.83,2.83,0,0,1,1.64.38,1.33,1.33,0,0,1,.53,1.15,1.24,1.24,0,0,1-.32.87,1.63,1.63,0,0,1-.94.45v0a1.74,1.74,0,0,1,1.06.46,1.3,1.3,0,0,1,.34,1,1.55,1.55,0,0,1-.55,1.28,2.43,2.43,0,0,1-1.57.45H61Zm.42,2.69h1.33A2.1,2.1,0,0,0,64,45.54a1,1,0,0,0,.39-.88,1,1,0,0,0-.44-.87,2.39,2.39,0,0,0-1.3-.28H61.45Zm0,.37v2.6h1.42c1.11,0,1.67-.46,1.67-1.36S64,46.2,62.78,46.2Z"/><path class="cls-2" d="M69.22,47H66.77l-.84,2.13h-.46l2.42-6.05h.27l2.37,6.05h-.47Zm-2.29-.38h2.15l-.82-2.17c-.07-.17-.15-.41-.24-.71a7.48,7.48,0,0,1-.25.72Z"/><path class="cls-2" d="M75.77,49.17h-.43l-3.57-5.35h0c0,.64.05,1.12.05,1.44v3.91h-.4v-6h.42l3.56,5.34h0c0-.49,0-1,0-1.4V43.14h.41Z"/><path class="cls-2" d="M77.47,49.17v-6h.42v6Z"/><path class="cls-2" d="M81.17,49.17h-.42V43.54h-2v-.4h4.34v.4h-2Z"/><path class="cls-2" d="M89.09,46.15a3.38,3.38,0,0,1-.72,2.27,2.76,2.76,0,0,1-4,0,3.39,3.39,0,0,1-.72-2.28,3.31,3.31,0,0,1,.73-2.27,2.78,2.78,0,0,1,3.95,0A3.39,3.39,0,0,1,89.09,46.15Zm-4.93,0a3.06,3.06,0,0,0,.58,2,2,2,0,0,0,1.65.71,2,2,0,0,0,1.67-.71,3.79,3.79,0,0,0,0-4,2.33,2.33,0,0,0-3.32,0A3,3,0,0,0,84.16,46.15Z"/><path class="cls-2" d="M93.8,47.61a1.44,1.44,0,0,1-.55,1.2,2.33,2.33,0,0,1-1.48.44A4.66,4.66,0,0,1,90.08,49v-.42a4.36,4.36,0,0,0,1.66.27,1.84,1.84,0,0,0,1.18-.34,1.06,1.06,0,0,0,.43-.89,1.09,1.09,0,0,0-.14-.57,1.39,1.39,0,0,0-.47-.41,7.19,7.19,0,0,0-1-.4,3.31,3.31,0,0,1-1.27-.68,1.47,1.47,0,0,1,.17-2.09,2.15,2.15,0,0,1,1.37-.42,3.9,3.9,0,0,1,1.59.32l-.15.36a3.7,3.7,0,0,0-1.44-.31,1.65,1.65,0,0,0-1.06.31,1,1,0,0,0-.4.84,1.15,1.15,0,0,0,.13.55,1.09,1.09,0,0,0,.39.38,6,6,0,0,0,1,.41,5,5,0,0,1,1.06.47,1.61,1.61,0,0,1,.52.52A1.42,1.42,0,0,1,93.8,47.61Z"/><path class="cls-2" d="M100.17,47H97.72l-.84,2.13h-.47l2.43-6.05h.27l2.37,6.05H101Zm-2.3-.38H100l-.82-2.17c-.07-.17-.15-.41-.25-.71a5.52,5.52,0,0,1-.24.72Z"/><path class="cls-2" d="M102.75,46.54v2.63h-.42v-6h1.44a2.68,2.68,0,0,1,1.66.42A1.48,1.48,0,0,1,106,44.8a1.66,1.66,0,0,1-.32,1,1.77,1.77,0,0,1-1,.59l1.64,2.75h-.51l-1.55-2.63Zm0-.36h1.15a1.83,1.83,0,0,0,1.19-.34,1.42,1.42,0,0,0,0-2,2.36,2.36,0,0,0-1.35-.31h-1Z"/><path class="cls-2" d="M108.92,49.17h-.42V43.54h-2v-.4h4.34v.4h-2Z"/><path class="cls-2" d="M115.07,49.17h-3.3v-6h3.3v.39h-2.88v2.28h2.72v.39h-2.72v2.58h2.88Z"/><path class="cls-2" d="M119.76,47.61a1.44,1.44,0,0,1-.56,1.2,2.32,2.32,0,0,1-1.47.44A4.62,4.62,0,0,1,116,49v-.42a4.33,4.33,0,0,0,1.66.27,1.83,1.83,0,0,0,1.17-.34,1.07,1.07,0,0,0,.44-.89,1,1,0,0,0-.15-.57,1.3,1.3,0,0,0-.47-.41,6.44,6.44,0,0,0-1-.4,3.37,3.37,0,0,1-1.28-.68,1.4,1.4,0,0,1-.35-1,1.37,1.37,0,0,1,.53-1.11,2.12,2.12,0,0,1,1.36-.42,3.91,3.91,0,0,1,1.6.32l-.16.36a3.66,3.66,0,0,0-1.43-.31,1.63,1.63,0,0,0-1.06.31,1,1,0,0,0-.4.84,1.15,1.15,0,0,0,.12.55,1.13,1.13,0,0,0,.4.38,5.63,5.63,0,0,0,1,.41,5.24,5.24,0,0,1,1.06.47,1.57,1.57,0,0,1,.51.52A1.42,1.42,0,0,1,119.76,47.61Z"/><path class="cls-2" d="M123.93,47h-2.45l-.84,2.13h-.46l2.42-6.05h.27l2.37,6.05h-.47Zm-2.29-.38h2.15L123,44.49c-.07-.17-.15-.41-.24-.71a7.48,7.48,0,0,1-.25.72Z"/><path class="cls-2" d="M130.48,49.17h-.43l-3.57-5.35h0c0,.64,0,1.12,0,1.44v3.91h-.4v-6h.42l3.56,5.34h0c0-.49,0-1,0-1.4V43.14h.41Z"/><path class="cls-2" d="M135.09,47h-2.45l-.84,2.13h-.47l2.43-6.05H134l2.38,6.05h-.48Zm-2.3-.38H135l-.82-2.17c-.07-.17-.15-.41-.25-.71a7.58,7.58,0,0,1-.24.72Z"/><path class="cls-2" d="M137.25,49.17v-6h.42v5.63h2.87v.4Z"/><path class="cls-2" d="M144.88,49.17h-3.3v-6h3.3v.39H142v2.28h2.72v.39H142v2.58h2.88Z"/><path class="cls-2" d="M149.57,47.61a1.44,1.44,0,0,1-.56,1.2,2.32,2.32,0,0,1-1.47.44,4.62,4.62,0,0,1-1.69-.24v-.42a4.33,4.33,0,0,0,1.66.27,1.83,1.83,0,0,0,1.17-.34,1.07,1.07,0,0,0,.44-.89,1,1,0,0,0-.15-.57,1.3,1.3,0,0,0-.47-.41,6.44,6.44,0,0,0-.95-.4,3.37,3.37,0,0,1-1.28-.68,1.4,1.4,0,0,1-.35-1,1.37,1.37,0,0,1,.53-1.11,2.12,2.12,0,0,1,1.36-.42,3.91,3.91,0,0,1,1.6.32l-.16.36a3.66,3.66,0,0,0-1.43-.31,1.63,1.63,0,0,0-1.06.31,1,1,0,0,0-.4.84,1.15,1.15,0,0,0,.12.55,1.13,1.13,0,0,0,.4.38,5.63,5.63,0,0,0,1,.41,5.24,5.24,0,0,1,1.06.47,1.57,1.57,0,0,1,.51.52A1.42,1.42,0,0,1,149.57,47.61Z"/><path class="cls-2" d="M150.94,46.09a.83.83,0,0,1,.17-.56.59.59,0,0,1,.46-.19.58.58,0,0,1,.47.2.82.82,0,0,1,.17.55.81.81,0,0,1-.17.54.56.56,0,0,1-.47.2.58.58,0,0,1-.46-.19A.84.84,0,0,1,150.94,46.09Z"/></svg>